Patient4_TMGait_0pt2_03_left_25_GRF.mot
version=1
nRows=32
nColumns=19
inDegrees=no
endheader
time	F1x	F1y	F1z	M1x	M1y	M1z	F2x	F2y	F2z	M2x	M2y	M2z	EC1x	EC1y	EC1z	EC2x	EC2y	EC2z
52.19	-5.5976	29.8488	5.0929	-9.1872	-6.8127	31.745	-25.6721	718.2145	-44.1275	265.8974	60.8106	822.6298	-0.0592	0.0182	-0.0073	-0.0462	0.0165	0.9585
52.2106	-5.3592	23.9922	4.322	-7.391	-6.0301	25.6059	-24.3	728.8956	-45.0772	270.0722	61.1126	833.3963	-0.0592	0.0182	-0.0073	-0.0462	0.0165	0.9585
52.2311	-4.7201	17.8275	3.3996	-5.5015	-4.9517	19.1369	-22.8704	743.7811	-46.3547	275.8603	61.6607	848.3524	-0.0592	0.0182	-0.0073	-0.0462	0.0165	0.9585
52.2517	-3.7218	12.0622	2.4269	-3.7353	-3.6908	13.0779	-21.3778	762.7385	-47.8333	283.1979	62.324	867.3467	-0.0592	0.0182	-0.0073	-0.0462	0.0165	0.9585
52.2723	-2.6263	7.2863	1.5502	-2.2714	-2.4811	8.0537	-19.757	784.8388	-49.3112	291.7217	62.8715	889.359	-0.0592	0.0182	-0.0073	-0.0462	0.0165	0.9585
52.2929	-1.637	3.7051	0.85193	-1.1727	-1.473	4.29	-17.9314	808.3279	-50.5748	300.7604	63.0546	912.4587	-0.0592	0.0182	-0.0073	-0.0462	0.0165	0.9585
52.3134	-0.85048	1.2346	0.35273	-0.41309	-0.72107	1.6947	-15.8333	830.8125	-51.4615	309.4058	62.6831	934.0117	-0.0592	0.0182	-0.0073	-0.0462	0.0165	0.9585
52.334	-0.29183	-0.36346	0.033177	0.08201	-0.21808	0.0066924	-13.4032	849.5706	-51.8693	316.6313	61.6365	951.0206	-0.0592	0.0182	-0.0073	-0.0462	0.0165	0.9585
52.3546	0.056565	-1.3884	-0.14618	0.40632	0.079183	-1.0974	-10.5715	862.0476	-51.733	321.4809	59.8303	960.6724	-0.0592	0.0182	-0.0073	-0.0462	0.0165	0.9585
52.3751	0.24071	-2.1399	-0.22955	0.65402	0.22942	-1.9479	-7.2568	866.4167	-51.0238	323.2766	57.2164	960.969	-0.0592	0.0182	-0.0073	-0.0462	0.0165	0.9585
52.3957	0.31999	-2.8836	-0.25986	0.90901	0.29692	-2.8427	-3.4096	861.9897	-49.7664	321.7667	53.8186	951.2001	-0.0592	0.0182	-0.0073	-0.0462	0.0165	0.9585
52.4163	0.35152	-3.821	-0.27565	1.2356	0.34084	-4.0078	0.94735	849.3199	-48.0556	317.1598	49.7681	932.072	-0.0592	0.0182	-0.0073	-0.0462	0.0165	0.9585
52.4369	0.39214	-5.0612	-0.30585	1.667	0.40952	-5.5592	5.7192	829.9971	-46.0527	310.0477	45.294	905.4779	-0.0592	0.0182	-0.0073	-0.0462	0.0165	0.9585
52.4574	0.49255	-6.5813	-0.37361	2.1936	0.54354	-7.4542	10.751	806.2761	-43.9756	301.2646	40.7051	874.0846	-0.0592	0.0182	-0.0073	-0.0462	0.0165	0.9585
52.478	0.69146	-8.1793	-0.49232	2.7455	0.77028	-9.4437	15.8301	780.6915	-42.0664	291.7464	36.3549	840.8887	-0.0592	0.0182	-0.0073	-0.0462	0.0165	0.9585
52.4986	1.015	-9.4192	-0.65941	3.1723	1.0974	-11.0023	20.6956	755.7426	-40.5401	282.4167	32.5814	808.8455	-0.0592	0.0182	-0.0073	-0.0462	0.0165	0.9585
52.5191	1.4752	-9.576	-0.85217	3.2237	1.5059	-11.2579	25.0559	733.6038	-39.5419	274.0806	29.6539	780.5267	-0.0592	0.0182	-0.0073	-0.0462	0.0165	0.9585
52.5397	2.0618	-7.5943	-1.0229	2.5372	1.9354	-8.9407	28.6086	715.7795	-39.1393	267.2957	27.7532	757.732	-0.0592	0.0182	-0.0073	-0.0462	0.0165	0.9585
52.5603	2.7206	-2.0901	-1.0913	0.63869	2.2664	-2.3848	31.089	702.7653	-39.3237	262.2455	26.9604	741.1117	-0.0592	0.0182	-0.0073	-0.0462	0.0165	0.9585
52.5809	3.3265	8.5695	-0.93642	-3.0306	2.3056	10.3806	32.2971	693.8543	-40.0134	258.666	27.2505	729.9569	-0.0592	0.0182	-0.0073	-0.0462	0.0165	0.9585
52.6014	3.6637	26.0544	-0.39723	-9.041	1.7775	31.3753	32.1218	687.1903	-41.0491	255.8689	28.4812	722.2569	-0.0592	0.0182	-0.0073	-0.0462	0.0165	0.9585
52.622	3.4069	51.6687	0.72002	-17.8359	0.32857	62.1872	30.5523	680.1635	-42.1838	252.8931	30.3811	715.1257	-0.0592	0.0182	-0.0073	-0.0462	0.0165	0.9585
52.6426	2.1157	85.7018	2.6222	-29.5074	-2.4511	103.1932	27.6829	670.0204	-43.1111	248.7319	32.5753	705.4636	-0.0592	0.0182	-0.0073	-0.0462	0.0165	0.9585
52.6631	-0.61664	126.657	5.4815	-43.5297	-6.912	152.6166	23.7513	654.4564	-43.5406	242.5522	34.6549	690.6102	-0.0592	0.0182	-0.0073	-0.0462	0.0165	0.9585
52.6837	-4.4896	171.0106	9.3454	-58.6794	-12.9981	206.1898	19.1785	632.1797	-43.2822	233.9014	36.2584	668.9513	-0.0592	0.0182	-0.0073	-0.0462	0.0165	0.9585
52.7043	-8.5617	214.4621	13.916	-73.4888	-19.9974	258.5903	14.541	603.3938	-42.2908	222.8856	37.1289	640.435	-0.0592	0.0182	-0.0073	-0.0462	0.0165	0.9585
52.7249	-12.0582	254.543	18.5803	-87.1429	-26.8844	306.6772	10.4621	569.7869	-40.6634	210.1561	37.143	606.588	-0.0592	0.0182	-0.0073	-0.0462	0.0165	0.9585
52.7454	-14.6816	290.9975	22.8586	-99.5829	-32.9708	350.0714	7.4181	533.7313	-38.5611	196.6067	36.2972	569.7234	-0.0592	0.0182	-0.0073	-0.0462	0.0165	0.9585
52.766	-16.4493	324.556	26.456	-111.0745	-37.9121	389.6453	5.5767	497.3621	-36.134	183.029	34.687	532.02	-0.0592	0.0182	-0.0073	-0.0462	0.0165	0.9585
52.7866	-17.4421	355.9421	29.2399	-121.864	-41.5904	426.2725	4.7966	462.1076	-33.5292	169.9378	32.5106	495.0225	-0.0592	0.0182	-0.0073	-0.0462	0.0165	0.9585
52.8071	-17.6971	385.4565	31.248	-132.034	-44.0739	460.3285	4.7615	428.7047	-30.9142	157.5799	30.0452	459.6065	-0.0592	0.0182	-0.0073	-0.0462	0.0165	0.9585
52.8277	-17.2338	412.8957	32.6556	-141.4843	-45.5817	491.6024	5.1256	397.4343	-28.4397	146.0311	27.5619	426.1836	-0.0592	0.0182	-0.0073	-0.0462	0.0165	0.9585
